<svg xmlns="http://www.w3.org/2000/svg" version="1.1" xmlns:xlink="http://www.w3.org/1999/xlink" xmlns:svgjs="http://svgjs.dev/svgjs" width="2000" height="1247" viewBox="0 0 2000 1247"><g transform="matrix(1,0,0,1,-1.2121212121212466,0.504858299595071)"><svg viewBox="0 0 396 247" data-background-color="#ffffff" preserveAspectRatio="xMidYMid meet" height="1247" width="2000" xmlns="http://www.w3.org/2000/svg" xmlns:xlink="http://www.w3.org/1999/xlink"><g id="tight-bounds" transform="matrix(1,0,0,1,0.2400000000000091,-0.09999999999999432)"><svg viewBox="0 0 395.52 247.2" height="247.2" width="395.52"><g><svg></svg></g><g><svg viewBox="0 0 395.52 247.2" height="247.2" width="395.52"><g transform="matrix(1,0,0,1,75.54432,88.63683661792753)"><svg viewBox="0 0 244.43135999999998 69.92632676414493" height="69.92632676414493" width="244.43135999999998"><g><svg viewBox="0 0 244.43135999999998 69.92632676414493" height="69.92632676414493" width="244.43135999999998"><g><svg viewBox="0 0 244.43135999999998 69.92632676414493" height="69.92632676414493" width="244.43135999999998"><g><svg viewBox="0 0 244.43135999999998 69.92632676414493" height="69.92632676414493" width="244.43135999999998"><g id="textblocktransform"><svg viewBox="0 0 244.43135999999998 69.92632676414493" height="69.92632676414493" width="244.43135999999998" id="textblock"><g><svg viewBox="0 0 244.43135999999998 69.92632676414493" height="69.92632676414493" width="244.43135999999998"><g transform="matrix(1,0,0,1,0,0)"><svg width="244.43135999999998" viewBox="4.25 -35 157.29 45" height="69.92632676414493" data-palette-color="#748a98"><path d="M27-35L31-35 31 0 26.95 0 8.25-28.6 8.25 0 4.25 0 4.25-35 8.3-35 27-6.45 27-35ZM49.6 0.35L49.6 0.35Q46.1 0.35 43.37-1.35 40.65-3.05 39.1-6 37.55-8.95 37.55-12.75L37.55-12.75Q37.55-16.4 39.1-19.25 40.65-22.1 43.35-23.73 46.05-25.35 49.5-25.35L49.5-25.35Q52.9-25.35 55.57-23.85 58.25-22.35 59.75-19.7 61.25-17.05 61.15-13.65L61.15-13.65Q61.15-13.1 61.1-12.5 61.05-11.9 61-11.2L61-11.2 41.65-11.2Q41.75-8.85 42.8-7.05 43.85-5.25 45.57-4.23 47.3-3.2 49.5-3.2L49.5-3.2Q52.4-3.2 54.42-4.3 56.45-5.4 57.35-7.45L57.35-7.45 60.6-6.15Q59.1-3 56.25-1.33 53.4 0.35 49.6 0.35ZM41.7-14.45L57.05-14.45Q57.1-16.6 56.12-18.25 55.15-19.9 53.4-20.85 51.65-21.8 49.35-21.8L49.35-21.8Q47.35-21.8 45.7-20.85 44.05-19.9 42.97-18.23 41.9-16.55 41.7-14.45L41.7-14.45ZM86.2-5.1L86.6-5.05Q85.45-2.75 83.1-1.2 80.75 0.35 77.2 0.35L77.2 0.35Q73.75 0.35 71.17-1.25 68.6-2.85 67.17-5.73 65.75-8.6 65.75-12.5L65.75-12.5Q65.75-16.45 67.17-19.33 68.6-22.2 71.17-23.78 73.75-25.35 77.2-25.35L77.2-25.35Q80.55-25.35 82.82-23.9 85.1-22.45 86.25-20.35L86.25-20.35 86.5-25 89.95-25 89.95 10 86.2 10 86.2-5.1ZM69.8-12.5L69.8-12.5Q69.8-8.2 72.02-5.68 74.25-3.15 78-3.15L78-3.15Q80.35-3.15 82.2-4.28 84.05-5.4 85.12-7.5 86.2-9.6 86.2-12.5L86.2-12.5Q86.2-15.45 85.12-17.55 84.05-19.65 82.2-20.75 80.35-21.85 78-21.85L78-21.85Q74.2-21.85 72-19.33 69.8-16.8 69.8-12.5ZM95.44-25L99.19-25 99.19-32 102.94-32 102.94-25 109.59-25 109.59-21.5 102.94-21.5 102.94-8.05Q102.94-5.75 103.92-4.7 104.89-3.65 106.42-3.45 107.94-3.25 109.59-3.45L109.59-3.45 109.59-0.2Q107.64 0.25 105.77 0.05 103.89-0.15 102.42-1.07 100.94-2 100.07-3.7 99.19-5.4 99.19-8.05L99.19-8.05 99.19-21.5 95.44-21.5 95.44-25ZM125.69 0.35L125.69 0.35Q122.19 0.35 119.47-1.35 116.74-3.05 115.19-6 113.64-8.95 113.64-12.75L113.64-12.75Q113.64-16.4 115.19-19.25 116.74-22.1 119.44-23.73 122.14-25.35 125.59-25.35L125.59-25.35Q128.99-25.35 131.67-23.85 134.34-22.35 135.84-19.7 137.34-17.05 137.24-13.65L137.24-13.65Q137.24-13.1 137.19-12.5 137.14-11.9 137.09-11.2L137.09-11.2 117.74-11.2Q117.84-8.85 118.89-7.05 119.94-5.25 121.67-4.23 123.39-3.2 125.59-3.2L125.59-3.2Q128.49-3.2 130.52-4.3 132.54-5.4 133.44-7.45L133.44-7.45 136.69-6.15Q135.19-3 132.34-1.33 129.49 0.35 125.69 0.35ZM117.79-14.45L133.14-14.45Q133.19-16.6 132.22-18.25 131.24-19.9 129.49-20.85 127.74-21.8 125.44-21.8L125.44-21.8Q123.44-21.8 121.79-20.85 120.14-19.9 119.06-18.23 117.99-16.55 117.79-14.45L117.79-14.45ZM148.74-12.55L140.09-25 144.39-25 150.79-15.45 157.19-25 161.54-25 152.89-12.55 161.54 0 157.19 0 150.79-9.65 144.39 0 140.09 0 148.74-12.55Z" opacity="1" transform="matrix(1,0,0,1,0,0)" fill="#ffffff" class="wordmark-text-0" data-fill-palette-color="primary" id="text-0"></path></svg></g></svg></g></svg></g></svg></g></svg></g></svg></g></svg></g><path d="M189.793 82.637L189.793 25.705 385.584 25.705 385.584 221.495 189.793 221.495 189.793 164.563 196.099 164.563 196.099 215.189 379.278 215.189 379.278 32.011 196.099 32.011 196.099 82.637Z" fill="#ffffff" stroke="transparent" data-fill-palette-color="tertiary"></path></svg></g><defs></defs></svg><rect width="395.52" height="247.2" fill="none" stroke="none" visibility="hidden"></rect></g></svg></g></svg>